<?xml version="1.0" encoding="UTF-8"?><!DOCTYPE svg PUBLIC "-//W3C//DTD SVG 1.1//EN" "http://www.w3.org/Graphics/SVG/1.1/DTD/svg11.dtd"><svg xmlns="http://www.w3.org/2000/svg" xmlns:xlink="http://www.w3.org/1999/xlink"><symbol id="download" viewBox="0 0 59 59">
	<path d="M20.187,28.313c-0.391-0.391-1.023-0.391-1.414,0s-0.391,1.023,0,1.414l9.979,9.979C28.938,39.895,29.192,40,29.458,40
		c0.007,0,0.014-0.004,0.021-0.004c0.007,0,0.013,0.004,0.021,0.004c0.333,0,0.613-0.173,0.795-0.423l9.891-9.891
		c0.391-0.391,0.391-1.023,0-1.414s-1.023-0.391-1.414,0L30.5,36.544V1c0-0.553-0.447-1-1-1s-1,0.447-1,1v35.628L20.187,28.313z"/>
	<path d="M36.5,16c-0.553,0-1,0.447-1,1s0.447,1,1,1h13v39h-40V18h13c0.553,0,1-0.447,1-1s-0.447-1-1-1h-15v43h44V16H36.5z"/>
</symbol><symbol id="edit" viewBox="0 0 55.25 55.25">
<path d="M52.618,2.631c-3.51-3.508-9.219-3.508-12.729,0L3.827,38.693C3.81,38.71,3.8,38.731,3.785,38.749
	c-0.021,0.024-0.039,0.05-0.058,0.076c-0.053,0.074-0.094,0.153-0.125,0.239c-0.009,0.026-0.022,0.049-0.029,0.075
	c-0.003,0.01-0.009,0.02-0.012,0.03l-3.535,14.85c-0.016,0.067-0.02,0.135-0.022,0.202C0.004,54.234,0,54.246,0,54.259
	c0.001,0.114,0.026,0.225,0.065,0.332c0.009,0.025,0.019,0.047,0.03,0.071c0.049,0.107,0.11,0.21,0.196,0.296
	c0.095,0.095,0.207,0.168,0.328,0.218c0.121,0.05,0.25,0.075,0.379,0.075c0.077,0,0.155-0.009,0.231-0.027l14.85-3.535
	c0.027-0.006,0.051-0.021,0.077-0.03c0.034-0.011,0.066-0.024,0.099-0.039c0.072-0.033,0.139-0.074,0.201-0.123
	c0.024-0.019,0.049-0.033,0.072-0.054c0.008-0.008,0.018-0.012,0.026-0.02l36.063-36.063C56.127,11.85,56.127,6.14,52.618,2.631z
	 M51.204,4.045c2.488,2.489,2.7,6.397,0.65,9.137l-9.787-9.787C44.808,1.345,48.716,1.557,51.204,4.045z M46.254,18.895l-9.9-9.9
	l1.414-1.414l9.9,9.9L46.254,18.895z M4.961,50.288c-0.391-0.391-1.023-0.391-1.414,0L2.79,51.045l2.554-10.728l4.422-0.491
	l-0.569,5.122c-0.004,0.038,0.01,0.073,0.01,0.11c0,0.038-0.014,0.072-0.01,0.11c0.004,0.033,0.021,0.06,0.028,0.092
	c0.012,0.058,0.029,0.111,0.05,0.165c0.026,0.065,0.057,0.124,0.095,0.181c0.031,0.046,0.062,0.087,0.1,0.127
	c0.048,0.051,0.1,0.094,0.157,0.134c0.045,0.031,0.088,0.06,0.138,0.084C9.831,45.982,9.9,46,9.972,46.017
	c0.038,0.009,0.069,0.03,0.108,0.035c0.036,0.004,0.072,0.006,0.109,0.006c0,0,0.001,0,0.001,0c0,0,0.001,0,0.001,0h0.001
	c0,0,0.001,0,0.001,0c0.036,0,0.073-0.002,0.109-0.006l5.122-0.569l-0.491,4.422L4.204,52.459l0.757-0.757
	C5.351,51.312,5.351,50.679,4.961,50.288z M17.511,44.809L39.889,22.43c0.391-0.391,0.391-1.023,0-1.414s-1.023-0.391-1.414,0
	L16.097,43.395l-4.773,0.53l0.53-4.773l22.38-22.378c0.391-0.391,0.391-1.023,0-1.414s-1.023-0.391-1.414,0L10.44,37.738
	l-3.183,0.354L34.94,10.409l9.9,9.9L17.157,47.992L17.511,44.809z M49.082,16.067l-9.9-9.9l1.415-1.415l9.9,9.9L49.082,16.067z"/>
</symbol><symbol id="file" viewBox="0 0 60 60">
<g>
	<path d="M42.5,22h-25c-0.552,0-1,0.447-1,1s0.448,1,1,1h25c0.552,0,1-0.447,1-1S43.052,22,42.5,22z"/>
	<path d="M17.5,16h10c0.552,0,1-0.447,1-1s-0.448-1-1-1h-10c-0.552,0-1,0.447-1,1S16.948,16,17.5,16z"/>
	<path d="M42.5,30h-25c-0.552,0-1,0.447-1,1s0.448,1,1,1h25c0.552,0,1-0.447,1-1S43.052,30,42.5,30z"/>
	<path d="M42.5,38h-25c-0.552,0-1,0.447-1,1s0.448,1,1,1h25c0.552,0,1-0.447,1-1S43.052,38,42.5,38z"/>
	<path d="M42.5,46h-25c-0.552,0-1,0.447-1,1s0.448,1,1,1h25c0.552,0,1-0.447,1-1S43.052,46,42.5,46z"/>
	<path d="M38.914,0H6.5v60h47V14.586L38.914,0z M39.5,3.414L50.086,14H39.5V3.414z M8.5,58V2h29v14h14v42H8.5z"/>
</g>

</symbol><symbol id="garbage" viewBox="0 0 53 53">
<g>
	<path d="M46.5,9.557C46.5,7.596,44.904,6,42.943,6H33.5V3c0-1.654-1.346-3-3-3h-8c-1.654,0-3,1.346-3,3v3h-9.443
		C8.096,6,6.5,7.596,6.5,9.557V14h2v35.271C8.5,51.327,10.173,53,12.229,53h28.541c2.057,0,3.729-1.673,3.729-3.729V14h2V9.557z
		 M21.5,3c0-0.552,0.449-1,1-1h8c0.551,0,1,0.448,1,1v3h-10V3z M42.5,49.271c0,0.954-0.776,1.729-1.729,1.729H12.229
		c-0.954,0-1.729-0.775-1.729-1.729V14h32V49.271z M44.5,12h-36V9.557C8.5,8.698,9.198,8,10.057,8H19.5h14h9.443
		C43.802,8,44.5,8.698,44.5,9.557V12z"/>
	<circle cx="14.5" cy="21" r="1"/>
	<circle cx="14.5" cy="27" r="1"/>
	<circle cx="17.5" cy="18" r="1"/>
	<circle cx="23.5" cy="18" r="1"/>
	<circle cx="17.5" cy="24" r="1"/>
	<circle cx="23.5" cy="24" r="1"/>
	<circle cx="20.5" cy="21" r="1"/>
	<circle cx="26.5" cy="21" r="1"/>
	<circle cx="20.5" cy="27" r="1"/>
	<circle cx="26.5" cy="27" r="1"/>
	<circle cx="29.5" cy="18" r="1"/>
	<circle cx="35.5" cy="18" r="1"/>
	<circle cx="29.5" cy="24" r="1"/>
	<circle cx="35.5" cy="24" r="1"/>
	<circle cx="32.5" cy="21" r="1"/>
	<circle cx="38.5" cy="21" r="1"/>
	<circle cx="32.5" cy="27" r="1"/>
	<circle cx="38.5" cy="27" r="1"/>
	<circle cx="14.5" cy="33" r="1"/>
	<circle cx="14.5" cy="39" r="1"/>
	<circle cx="17.5" cy="30" r="1"/>
	<circle cx="23.5" cy="30" r="1"/>
	<circle cx="17.5" cy="36" r="1"/>
	<circle cx="23.5" cy="36" r="1"/>
	<circle cx="20.5" cy="33" r="1"/>
	<circle cx="26.5" cy="33" r="1"/>
	<circle cx="20.5" cy="39" r="1"/>
	<circle cx="26.5" cy="39" r="1"/>
	<circle cx="29.5" cy="30" r="1"/>
	<circle cx="35.5" cy="30" r="1"/>
	<circle cx="29.5" cy="36" r="1"/>
	<circle cx="35.5" cy="36" r="1"/>
	<circle cx="32.5" cy="33" r="1"/>
	<circle cx="38.5" cy="33" r="1"/>
	<circle cx="32.5" cy="39" r="1"/>
	<circle cx="38.5" cy="39" r="1"/>
	<circle cx="14.5" cy="45" r="1"/>
	<circle cx="17.5" cy="42" r="1"/>
	<circle cx="23.5" cy="42" r="1"/>
	<circle cx="17.5" cy="48" r="1"/>
	<circle cx="23.5" cy="48" r="1"/>
	<circle cx="20.5" cy="45" r="1"/>
	<circle cx="26.5" cy="45" r="1"/>
	<circle cx="29.5" cy="42" r="1"/>
	<circle cx="35.5" cy="42" r="1"/>
	<circle cx="29.5" cy="48" r="1"/>
	<circle cx="35.5" cy="48" r="1"/>
	<circle cx="32.5" cy="45" r="1"/>
	<circle cx="38.5" cy="45" r="1"/>
</g>
<g>
</g>
<g>
</g>
<g>
</g>
<g>
</g>
<g>
</g>
<g>
</g>
<g>
</g>
<g>
</g>
<g>
</g>
<g>
</g>
<g>
</g>
<g>
</g>
<g>
</g>
<g>
</g>
<g>
</g>
</symbol><symbol id="play-button-1" viewBox="0 0 60 60">
<g>
	<path d="M45.563,29.174l-22-15c-0.307-0.208-0.703-0.231-1.031-0.058C22.205,14.289,22,14.629,22,15v30
		c0,0.371,0.205,0.711,0.533,0.884C22.679,45.962,22.84,46,23,46c0.197,0,0.394-0.059,0.563-0.174l22-15
		C45.836,30.64,46,30.331,46,30S45.836,29.36,45.563,29.174z M24,43.107V16.893L43.225,30L24,43.107z"/>
	<path d="M30,0C13.458,0,0,13.458,0,30s13.458,30,30,30s30-13.458,30-30S46.542,0,30,0z M30,58C14.561,58,2,45.439,2,30
		S14.561,2,30,2s28,12.561,28,28S45.439,58,30,58z"/>
</g>
</symbol><symbol id="play-button" viewBox="0 0 41.999 41.999">
<path d="M36.068,20.176l-29-20C6.761-0.035,6.363-0.057,6.035,0.114C5.706,0.287,5.5,0.627,5.5,0.999v40
	c0,0.372,0.206,0.713,0.535,0.886c0.146,0.076,0.306,0.114,0.465,0.114c0.199,0,0.397-0.06,0.568-0.177l29-20
	c0.271-0.187,0.432-0.494,0.432-0.823S36.338,20.363,36.068,20.176z M7.5,39.095V2.904l26.239,18.096L7.5,39.095z"/>
</symbol><symbol id="repeat" viewBox="0 0 51.4 51.4">
<g>
	<path d="M1.7,25.2c0.553,0,1-0.447,1-1c0-6.065,4.935-11,11-11h24v8.964L51.4,12.2L37.7,2.236V11.2h-24c-7.168,0-13,5.832-13,13
		C0.7,24.753,1.147,25.2,1.7,25.2z M39.7,6.164L48,12.2l-8.3,6.036V6.164z"/>
	<path d="M49.7,26.2c-0.553,0-1,0.447-1,1c0,6.065-4.935,11-11,11h-24v-8.964L0,39.2l13.7,9.964V40.2h24c7.168,0,13-5.832,13-13
		C50.7,26.647,50.253,26.2,49.7,26.2z M11.7,45.236L3.4,39.2l8.3-6.036V45.236z"/>
</g>
</symbol><symbol id="save" viewBox="0 0 49 49">
<g>
	<path d="M39.914,0H37.5h-28h-9v49h7h33h8V8.586L39.914,0z M35.5,2v14h-24V2H35.5z M9.5,47V28h29v19H9.5z M46.5,47h-6V26h-33v21h-5
		V2h7v16h28V2h1.586L46.5,9.414V47z"/>
	<path d="M13.5,33h7c0.553,0,1-0.447,1-1s-0.447-1-1-1h-7c-0.553,0-1,0.447-1,1S12.947,33,13.5,33z"/>
	<path d="M23.5,35h-10c-0.553,0-1,0.447-1,1s0.447,1,1,1h10c0.553,0,1-0.447,1-1S24.053,35,23.5,35z"/>
	<path d="M25.79,35.29c-0.181,0.189-0.29,0.45-0.29,0.71s0.109,0.52,0.29,0.71C25.979,36.89,26.229,37,26.5,37
		c0.26,0,0.52-0.11,0.71-0.29c0.18-0.19,0.29-0.45,0.29-0.71s-0.11-0.521-0.29-0.71C26.84,34.92,26.16,34.92,25.79,35.29z"/>
	<path d="M33.5,4h-6v10h6V4z M31.5,12h-2V6h2V12z"/>
</g>
<g>
</g>
<g>
</g>
<g>
</g>
<g>
</g>
<g>
</g>
<g>
</g>
<g>
</g>
<g>
</g>
<g>
</g>
<g>
</g>
<g>
</g>
<g>
</g>
<g>
</g>
<g>
</g>
<g>
</g>
</symbol><symbol id="upload" viewBox="0 0 58.999 58.999">
<g>
	<path d="M19.479,12.019c0.256,0,0.512-0.098,0.707-0.293l8.313-8.313v35.586c0,0.553,0.447,1,1,1s1-0.447,1-1V3.413l8.272,8.272
		c0.391,0.391,1.023,0.391,1.414,0s0.391-1.023,0-1.414l-9.978-9.978c-0.092-0.093-0.203-0.166-0.327-0.217
		c-0.244-0.101-0.519-0.101-0.764,0c-0.123,0.051-0.234,0.125-0.326,0.217L18.772,10.312c-0.391,0.391-0.391,1.023,0,1.414
		C18.967,11.922,19.223,12.019,19.479,12.019z"/>
	<path d="M36.499,15.999c-0.553,0-1,0.447-1,1s0.447,1,1,1h13v39h-40v-39h13c0.553,0,1-0.447,1-1s-0.447-1-1-1h-15v43h44v-43H36.499
		z"/>
</g>
<g>
</g>
<g>
</g>
<g>
</g>
<g>
</g>
<g>
</g>
<g>
</g>
<g>
</g>
<g>
</g>
<g>
</g>
<g>
</g>
<g>
</g>
<g>
</g>
<g>
</g>
<g>
</g>
<g>
</g>
</symbol><symbol id="view" viewBox="0 0 59.2 59.2">
<g>
	<path d="M51.062,21.561c-11.889-11.889-31.232-11.889-43.121,0L0,29.501l8.138,8.138c5.944,5.944,13.752,8.917,21.561,8.917
		s15.616-2.972,21.561-8.917l7.941-7.941L51.062,21.561z M49.845,36.225c-11.109,11.108-29.184,11.108-40.293,0l-6.724-6.724
		l6.527-6.527c11.109-11.108,29.184-11.108,40.293,0l6.724,6.724L49.845,36.225z"/>
	<path d="M28.572,21.57c-3.86,0-7,3.14-7,7c0,0.552,0.448,1,1,1s1-0.448,1-1c0-2.757,2.243-5,5-5c0.552,0,1-0.448,1-1
		S29.125,21.57,28.572,21.57z"/>
	<path d="M29.572,16.57c-7.168,0-13,5.832-13,13s5.832,13,13,13s13-5.832,13-13S36.741,16.57,29.572,16.57z M29.572,40.57
		c-6.065,0-11-4.935-11-11s4.935-11,11-11s11,4.935,11,11S35.638,40.57,29.572,40.57z"/>
</g>
<g>
</g>
<g>
</g>
<g>
</g>
<g>
</g>
<g>
</g>
<g>
</g>
<g>
</g>
<g>
</g>
<g>
</g>
<g>
</g>
<g>
</g>
<g>
</g>
<g>
</g>
<g>
</g>
<g>
</g>
</symbol></svg>